<svg width="38" height="38" viewBox="0 0 38 38" fill="none" xmlns="http://www.w3.org/2000/svg">
  <rect width="38" height="38" rx="19" fill="white" />
  <path fill-rule="evenodd" clip-rule="evenodd"
    d="M32.3 19C32.3 19.787 31.6621 20.425 30.875 20.425L10.663 20.425L18.5627 27.9478C19.13 28.4933 19.1477 29.3954 18.6022 29.9627C18.0568 30.53 17.1547 30.5477 16.5874 30.0022L6.13737 20.0272C5.85796 19.7585 5.70005 19.3876 5.70005 19C5.70005 18.6124 5.85796 18.2415 6.13737 17.9728L16.5874 7.99782C17.1547 7.45234 18.0568 7.47003 18.6022 8.03733C19.1477 8.60463 19.13 9.50671 18.5627 10.0522L10.663 17.575L30.875 17.575C31.6621 17.575 32.3 18.213 32.3 19Z"
    fill="#3d3f47" />
</svg>