<svg width="20" height="20" viewBox="0 0 20 20" fill="none" xmlns="http://www.w3.org/2000/svg">
  <path fill-rule="evenodd" clip-rule="evenodd"
    d="M15.5 10C15.5 10.4142 15.1642 10.75 14.75 10.75H8.11208L10.2698 12.7094C10.5684 12.9965 10.5777 13.4713 10.2906 13.7698C10.0035 14.0684 9.52875 14.0777 9.23017 13.7906L5.73017 10.5406C5.58311 10.3992 5.5 10.204 5.5 10C5.5 9.79599 5.58311 9.60078 5.73017 9.45938L9.23017 6.20938C9.52875 5.92228 10.0035 5.93159 10.2906 6.23017C10.5777 6.52875 10.5684 7.00353 10.2698 7.29063L8.11208 9.25L14.75 9.25C15.1642 9.25 15.5 9.58579 15.5 10Z"
    fill="#3d3f47" />
</svg>