<svg width="20" height="20" viewBox="0 0 20 20" fill="none" xmlns="http://www.w3.org/2000/svg">
  <path
    d="M14.2123 6.21248C14.3884 6.04484 14.6227 5.95217 14.8659 5.95401C15.109 5.95585 15.3419 6.05206 15.5154 6.22234C15.6889 6.39263 15.7895 6.62366 15.7959 6.8667C15.8024 7.10974 15.7141 7.34577 15.5498 7.52498L10.5623 13.7625C10.4766 13.8549 10.3731 13.929 10.258 13.9804C10.1429 14.0319 10.0187 14.0596 9.89264 14.062C9.76662 14.0643 9.64142 14.0412 9.52453 13.994C9.40763 13.9469 9.30145 13.8766 9.21233 13.7875L5.90483 10.48C5.81272 10.3942 5.73884 10.2907 5.6876 10.1757C5.63636 10.0607 5.60881 9.93652 5.60659 9.81064C5.60437 9.68476 5.62753 9.55972 5.67468 9.44299C5.72183 9.32625 5.79201 9.22021 5.88103 9.13119C5.97006 9.04216 6.0761 8.97198 6.19283 8.92483C6.30957 8.87768 6.43461 8.85452 6.56048 8.85674C6.68636 8.85896 6.8105 8.88652 6.9255 8.93776C7.0405 8.989 7.144 9.06287 7.22983 9.15498L9.84733 11.7712L14.1886 6.23998L14.2123 6.21248Z"
    fill="#3d3f47" />
</svg>
