<svg width="24" height="24" viewBox="0 0 24 24" fill="none" xmlns="http://www.w3.org/2000/svg">
  <path
    d="M13.35 6.14999C13.35 5.4044 12.7456 4.79999 12 4.79999C11.2544 4.79999 10.65 5.4044 10.65 6.14999V10.65H6.15C5.40441 10.65 4.8 11.2544 4.8 12C4.8 12.7456 5.40441 13.35 6.15 13.35L10.65 13.35V17.85C10.65 18.5956 11.2544 19.2 12 19.2C12.7456 19.2 13.35 18.5956 13.35 17.85V13.35L17.85 13.35C18.5956 13.35 19.2 12.7456 19.2 12C19.2 11.2544 18.5956 10.65 17.85 10.65H13.35V6.14999Z"
    fill="white" />
</svg>
