<svg width="32" height="32" viewBox="0 0 32 32" fill="none" xmlns="http://www.w3.org/2000/svg">
  <path
    d="M17.1999 7.60002C17.1999 6.93728 16.6626 6.40002 15.9999 6.40002C15.3372 6.40002 14.7999 6.93728 14.7999 7.60002V14.8H7.5999C6.93716 14.8 6.3999 15.3373 6.3999 16C6.3999 16.6628 6.93716 17.2 7.5999 17.2L14.7999 17.2V24.4C14.7999 25.0628 15.3372 25.6 15.9999 25.6C16.6626 25.6 17.1999 25.0628 17.1999 24.4V17.2L24.3999 17.2C25.0626 17.2 25.5999 16.6628 25.5999 16C25.5999 15.3373 25.0626 14.8 24.3999 14.8H17.1999V7.60002Z"
    fill="white" />
</svg>